<svg id="Layer_1" data-name="Layer 1" xmlns="http://www.w3.org/2000/svg" viewBox="0 0 47.04 59.32"><defs><style>.cls-1{fill:#5f788a;}</style></defs><title>marker</title><path class="cls-1" d="M32.28,1.68a23.52,23.52,0,0,0-10,44.79L30.8,60.18a1.74,1.74,0,0,0,2.95,0l8.57-13.71a23.52,23.52,0,0,0-10-44.79Zm.06,39.94A16.37,16.37,0,1,1,48.7,25.26,16.38,16.38,0,0,1,32.34,41.62Z" transform="translate(-8.76 -1.68)"/><path class="cls-1" d="M21.36,17.6a13.42,13.42,0,0,0-1.71,10.62.75.75,0,0,0,.72.55h7.4a.75.75,0,0,0,.65-1.13l-5.78-10A.75.75,0,0,0,21.36,17.6Z" transform="translate(-8.76 -1.68)"/><path class="cls-1" d="M20.7,31A13.46,13.46,0,0,0,29,37.75a.74.74,0,0,0,.84-.36l3.7-6.4a.75.75,0,0,0-.65-1.12H21.37A.75.75,0,0,0,20.7,31Z" transform="translate(-8.76 -1.68)"/><path class="cls-1" d="M43.86,32.14a13.39,13.39,0,0,0,1.71-10.61.75.75,0,0,0-.72-.56h-7.4a.75.75,0,0,0-.65,1.13l5.78,10A.75.75,0,0,0,43.86,32.14Z" transform="translate(-8.76 -1.68)"/><path class="cls-1" d="M37.11,27.11l-5.77,10a.75.75,0,0,0,.6,1.12A13.33,13.33,0,0,0,42,34.41a.74.74,0,0,0,.12-.9l-3.7-6.4A.75.75,0,0,0,37.11,27.11Z" transform="translate(-8.76 -1.68)"/><path class="cls-1" d="M28.11,22.63l5.77-10a.75.75,0,0,0-.6-1.12,13.33,13.33,0,0,0-10,3.83.74.74,0,0,0-.12.9l3.7,6.4A.75.75,0,0,0,28.11,22.63Z" transform="translate(-8.76 -1.68)"/><path class="cls-1" d="M35.63,11.8l-4,6.9a.75.75,0,0,0,.65,1.12H43.85a.75.75,0,0,0,.67-1.09,13.43,13.43,0,0,0-8.89-6.93Z" transform="translate(-8.76 -1.68)"/><path class="cls-1" d="M36.6,24.75H34.74v-.26h.5a.12.12,0,0,0,.12-.1.11.11,0,0,0-.11-.13h-.51V24h.35a.47.47,0,0,0,.35-.15l.76-.76a.31.31,0,0,0,.23,0,.24.24,0,0,0,.14-.05.37.37,0,0,0,.15-.36.34.34,0,0,0-.06-.15.34.34,0,0,0-.36-.15.35.35,0,0,0-.14.06.37.37,0,0,0-.16.3.32.32,0,0,0,0,.16l-.77.76a.23.23,0,0,1-.18.08h-.35V23.5a.61.61,0,0,0-.61-.62h-.25v-1a.39.39,0,0,0,.24-.35.37.37,0,0,0-.73,0,.38.38,0,0,0,.26.35v1h-.28v-.5a.12.12,0,1,0-.23,0v.5h-.27V21a.12.12,0,0,0-.1-.12.11.11,0,0,0-.13.11V22.9h-.26v-.5a.12.12,0,1,0-.23,0v.5h-.27v-.35a.48.48,0,0,0-.14-.34L31,21.44a.37.37,0,0,0-.07-.42.36.36,0,0,0-.51,0,.36.36,0,0,0,0,.52.35.35,0,0,0,.25.1.41.41,0,0,0,.16,0l.77.76a.24.24,0,0,1,.07.18v.35H31.4l-.15,0a.1.1,0,0,0-.09.12.11.11,0,0,0,.14.1h2.82a.38.38,0,0,1,.38.38v2.72a.39.39,0,0,1,0,.09.13.13,0,0,0,.09.15h0a.12.12,0,0,0,.11-.09.77.77,0,0,0,0-.15V26h1a.37.37,0,0,0,.35.24.36.36,0,0,0,.36-.36.37.37,0,0,0-.36-.37.38.38,0,0,0-.35.25h-1v-.26h.5a.12.12,0,1,0,0-.23h-.5V25H36.6a.13.13,0,0,0,.12-.12A.12.12,0,0,0,36.6,24.75Zm-.34-2.08a.13.13,0,0,1,.1,0,.11.11,0,0,1,.09,0,.15.15,0,0,1,0,.09.13.13,0,0,1,0,.09.11.11,0,0,1-.09,0,.13.13,0,0,1-.1,0,.13.13,0,0,1,0-.09A.15.15,0,0,1,36.26,22.67Zm-5.51-1.3a.13.13,0,0,1-.19-.19.13.13,0,0,1,.1,0,.12.12,0,0,1,.09,0A.14.14,0,0,1,30.75,21.37Zm3,.28a.13.13,0,1,1,0-.26.13.13,0,1,1,0,.26Zm2.36,4.08a.13.13,0,1,1-.13.13A.13.13,0,0,1,36.11,25.73Z" transform="translate(-8.76 -1.68)"/><path class="cls-1" d="M35.16,28.23a.36.36,0,0,0-.44-.1L34,27.37a.24.24,0,0,1-.07-.18v-.35h.24a.39.39,0,0,0,.15,0,.1.1,0,0,0,.09-.12.11.11,0,0,0-.14-.1H31.4a.38.38,0,0,1-.38-.38V23.5a.28.28,0,0,1,0-.09.11.11,0,1,0-.22-.06.39.39,0,0,0,0,.15v.27h-1a.36.36,0,0,0-.34-.26.37.37,0,1,0,0,.73.36.36,0,0,0,.34-.24h1v.26h-.5a.12.12,0,1,0,0,.23h.5v.26H28.94a.13.13,0,0,0-.12.11.12.12,0,0,0,.12.13H30.8v.26h-.5a.12.12,0,1,0,0,.23h.5v.26h-.35a.45.45,0,0,0-.34.15l-.77.76a.27.27,0,0,0-.16,0,.34.34,0,0,0-.25.11.35.35,0,0,0-.1.34.3.3,0,0,0,0,.1.36.36,0,0,0,.37.17.25.25,0,0,0,.15,0,.39.39,0,0,0,.16-.3.47.47,0,0,0,0-.17l.76-.76a.24.24,0,0,1,.18-.07h.34v.25a.61.61,0,0,0,.61.61h.25v1a.37.37,0,1,0,.23,0v-1h.27v.5a.11.11,0,0,0,.1.11.11.11,0,0,0,.13-.11v-.5h.26v1.88a.13.13,0,0,0,.12.11.1.1,0,0,0,.11-.11V26.84h.27v.5a.12.12,0,1,0,.23,0v-.5h.28v.35a.52.52,0,0,0,.14.35l.76.76a.37.37,0,0,0,.07.42.38.38,0,0,0,.54,0A.36.36,0,0,0,35.16,28.23ZM29.42,24a.13.13,0,0,1-.13-.13.13.13,0,1,1,.26,0A.13.13,0,0,1,29.42,24Zm-.16,3.06a.12.12,0,0,1-.09,0,.14.14,0,0,1-.09,0,.13.13,0,0,1,0-.1.14.14,0,0,1,.13-.13.1.1,0,0,1,.09,0,.11.11,0,0,1,0,.09A.13.13,0,0,1,29.26,27.07Zm2.64,1.14a.13.13,0,0,1-.13.13.13.13,0,0,1,0-.26A.13.13,0,0,1,31.9,28.21Zm3.06.34a.13.13,0,0,1-.18-.18.12.12,0,0,1,.18,0A.13.13,0,0,1,35,28.55Z" transform="translate(-8.76 -1.68)"/><path class="cls-1" d="M34,24.56a.56.56,0,0,0-.43-.53.28.28,0,0,0,0-.09.45.45,0,0,0-.46-.43.47.47,0,0,0-.35.15.49.49,0,0,0-.35-.15.44.44,0,0,0-.46.43A.28.28,0,0,0,32,24a.56.56,0,0,0-.43.53.52.52,0,0,0,.12.33.55.55,0,0,0-.12.35.57.57,0,0,0,.28.49h0a.51.51,0,0,0,.53.49.56.56,0,0,0,.42-.18.56.56,0,0,0,.42.18.52.52,0,0,0,.53-.46A.54.54,0,0,0,34,25.3a.52.52,0,0,0-.16-.37A.52.52,0,0,0,34,24.56Zm-.45.44,0,0a.31.31,0,0,1,.19.27.29.29,0,0,1-.11.22.51.51,0,0,0-.32-.25.06.06,0,0,0-.07,0,.11.11,0,0,0,0,.21.27.27,0,0,1,.2.24.28.28,0,0,1-.3.26.28.28,0,0,1-.31-.26V25a.29.29,0,0,1,.32-.25.08.08,0,0,0,.07,0,.12.12,0,0,0-.08-.2.54.54,0,0,0-.31.09v-.17a.07.07,0,0,0,0-.06.12.12,0,0,0-.2.08v.64L32.49,25a.09.09,0,0,0-.07,0,.12.12,0,0,0,0,.22.25.25,0,0,1,.2.24v.24a.3.3,0,0,1-.6,0,.23.23,0,0,1,.08-.17.11.11,0,0,0,0-.07.12.12,0,0,0-.2-.09l-.08.09a.36.36,0,0,1-.11-.25.39.39,0,0,1,.34-.37s0,0,.06-.05a.12.12,0,0,0-.13-.17.54.54,0,0,0-.21.08.27.27,0,0,1-.06-.17.34.34,0,0,1,.37-.32h0a.13.13,0,0,0,.08,0,.12.12,0,0,0,0-.15h0a.16.16,0,0,1,0-.11.23.23,0,0,1,.46,0,.09.09,0,0,0,0,.07.12.12,0,0,0,.2-.08.22.22,0,0,1,.24-.2.22.22,0,0,1,.23.2.14.14,0,0,1,0,.07.83.83,0,0,0-.21.06.12.12,0,0,0,0,.05.12.12,0,0,0,.16.15.41.41,0,0,1,.16,0h0a.35.35,0,0,1,.37.32.32.32,0,0,1-.18.27A.11.11,0,0,0,33.54,25Z" transform="translate(-8.76 -1.68)"/></svg>
